# xmcd
#
# Track frame offsets: 
#        150
#        15007
#        29957
#        40575
#        52725
#        67090
#        79245
#        95997
#        106122
#        127637
#        141505
#        155995
#        172120
#        185482
#        202537
#        223615
#        239725
#        258172
#        273245
#        286295
#        302265
#
# Disc length: 4318 seconds
#
# Revision: 1
# Processed by: cddbd v1.5.2PL0 Copyright (c) Steve Scherf et al.
# Submitted via: ExactAudioCopy v0.99pb4
#
DISCID=2610dc15
DTITLE=Mannick - Les plus belles chansons de Mannick
DYEAR=1900
DGENRE=Country
TTITLE0=Berceuse pour un enfant à naitre
TTITLE1=Quand j'étais petite fille
TTITLE2=Je viens du fond de mon enfance
TTITLE3=Goûte moi ce soleil
TTITLE4=Fille mère
TTITLE5=Tu me plais beaucoup
TTITLE6=Pour Antoine
TTITLE7=Votre amour
TTITLE8=A Tegucigalpa
TTITLE9=Je connais des bateaux
TTITLE10=Toi que l'on a brisé
TTITLE11=C'est un enfant soleil
TTITLE12=Parce qu'elle aime une femme
TTITLE13=Garde sa terre au Brésil
TTITLE14=Un jour les enfants
TTITLE15=Femme auprès de vous
TTITLE16=Fils de la terre
TTITLE17=Ton voyage
TTITLE18=Si ma vie continue
TTITLE19=De mère en fille
TTITLE20=Ne touchez pas aux enfants
EXTD=
EXTT0=
EXTT1=
EXTT2=
EXTT3=
EXTT4=
EXTT5=
EXTT6=
EXTT7=
EXTT8=
EXTT9=
EXTT10=
EXTT11=
EXTT12=
EXTT13=
EXTT14=
EXTT15=
EXTT16=
EXTT17=
EXTT18=
EXTT19=
EXTT20=
PLAYORDER=
